# Blender v2.79 (sub 0) OBJ File: ''
# www.blender.org
mtllib room_2.mtl
o Cube_Cube.001
v -15.000000 0.000000 15.000000
v -15.000000 16.875154 15.000000
v 3.589090 7.474978 -22.433167
v -3.589090 7.474978 -15.000000
v 15.000000 0.000000 15.000000
v 15.000000 16.875154 15.000000
v -3.589090 7.474978 -22.433167
v 3.589090 7.474978 -15.000000
v -15.000000 16.875154 -15.000000
v -15.000000 0.000000 -15.000000
v 15.000000 0.000000 -15.000000
v 15.000000 16.875154 -15.000000
v 3.589090 0.000000 -15.000000
v -3.589090 0.000000 -15.000000
v 3.589090 0.000000 -22.433167
v -3.589090 0.000000 -22.433167
vt 0.000000 0.000000
vt 1.000000 0.000000
vt 1.000000 1.000000
vt 0.000000 1.000000
vt 0.000000 0.379360
vt 0.000000 0.620627
vt 0.000000 0.620627
vt 0.000000 0.379360
vt 0.000000 0.000000
vt 1.000000 0.000000
vt 1.000000 1.000000
vt 0.000000 1.000000
vt 0.000000 0.000000
vt 1.000000 0.000000
vt 1.000000 1.000000
vt 0.000000 1.000000
vt 0.000000 0.000000
vt 1.000000 1.000000
vt 0.000000 1.000000
vt 0.000000 0.000000
vt 1.000000 0.000000
vt 0.000000 1.000000
vt 0.190224 0.338173
vt 0.190224 0.661827
vt 0.809776 0.338173
vt 0.809776 0.661827
vt 0.809776 0.661827
vt 0.809776 0.338173
vt 1.000000 1.000000
vt 1.000000 0.000000
vt 0.190224 0.338173
vt 0.190224 0.661827
vn 1.0000 0.0000 0.0000
vn 0.0000 1.0000 0.0000
vn -1.0000 0.0000 0.0000
vn 0.0000 0.0000 -1.0000
vn 0.0000 -1.0000 0.0000
vn 0.0000 0.0000 1.0000
usemtl None
s off
f 1/1/1 10/2/1 9/3/1 2/4/1
f 14/5/2 13/6/2 15/7/2 16/8/2
f 11/9/3 5/10/3 6/11/3 12/12/3
f 5/13/4 1/14/4 2/15/4 6/16/4
f 10/17/2 1/14/2 5/18/2 11/19/2 13/6/2 14/5/2
f 12/20/5 6/21/5 2/15/5 9/22/5
f 14/23/6 4/24/6 9/22/6 10/17/6
f 13/25/3 8/26/3 3/27/3 15/28/3
f 4/24/6 8/26/6 12/29/6 9/22/6
f 8/26/6 13/25/6 11/30/6 12/29/6
f 4/24/1 14/23/1 16/31/1 7/32/1
f 8/26/5 4/24/5 7/32/5 3/27/5
