# Blender v2.79 (sub 0) OBJ File: ''
# www.blender.org
mtllib room.mtl
o Cube_Cube.001
v -9.011202 -1.000001 8.378536
v -9.011202 -0.999999 -8.378536
v -9.011202 4.029156 -8.378535
v -9.011202 4.029153 8.378537
v 9.011202 -0.999999 -8.378536
v 9.011202 4.029156 -8.378535
v 9.011202 -1.000001 8.378536
v 9.011202 4.029153 8.378537
vt 0.003626 0.004853
vt 0.998097 0.004852
vt 0.998363 0.998273
vt 0.000875 0.998843
vt 0.003626 0.004853
vt 0.998097 0.004852
vt 0.998363 0.998273
vt 0.000875 0.998843
vt 0.998363 0.998273
vt 0.000875 0.998843
vt 0.003626 0.004853
vt 0.998097 0.004852
vt 0.998097 0.004852
vt 0.998363 0.998273
vt 0.000875 0.998843
vn 1.0000 0.0000 0.0000
vn 0.0000 -0.0000 1.0000
vn -1.0000 0.0000 0.0000
vn 0.0000 0.0000 -1.0000
vn 0.0000 1.0000 0.0000
usemtl None
s 1
f 1/1/1 2/2/1 3/3/1 4/4/1
f 2/5/2 5/6/2 6/7/2 3/8/2
f 5/9/3 7/10/3 8/11/3 6/12/3
f 7/13/4 1/14/4 4/4/4 8/11/4
f 2/15/5 1/1/5 7/13/5 5/9/5
