# Blender v2.80 (sub 45) OBJ File: ''
# www.blender.org
o Plane
v 1056.038696 50.178661 1043.183228
v -943.960938 50.178661 -956.816711
v 1056.038696 50.178661 -956.816711
v 1056.038452 2050.178711 1043.183228
v -943.961060 50.178780 1043.183105
v -943.960999 2050.178467 1043.183105
v 1056.038696 2050.178467 -956.816284
v -943.961121 2050.178467 -956.816528
vt -2.000000 -2.000000
vt 3.000000 -2.000000
vt 3.000000 3.000000
vt -2.000000 3.000000
vt -2.000000 -2.000000
vt 3.000000 -2.000000
vt 3.000000 3.000000
vt -2.000000 3.000000
vt -2.000000 -2.000000
vt 3.000000 -2.000000
vt 3.000000 3.000000
vt -2.000000 3.000000
vt 3.000000 -2.000000
vt 3.000000 3.000000
vt -2.000000 3.000000
vt -2.000000 -2.000000
vt 3.000000 3.000000
vt -2.000000 3.000000
vt -2.000000 -2.000000
vt 3.000000 -2.000000
vn 0.0000 1.0000 -0.0000
vn -0.0000 -0.0000 1.0000
vn 0.0000 0.0000 -1.0000
vn 1.0000 0.0000 0.0000
vn -1.0000 -0.0000 -0.0000
vn 0.0000 -1.0000 0.0000
s off
f 5/1/1 1/2/1 3/3/1 2/4/1
f 2/5/2 3/6/2 7/7/2 8/8/2
f 1/9/3 5/10/3 6/11/3 4/12/3
f 5/1/4 2/13/4 8/14/4 6/15/4
f 3/16/5 1/2/5 4/17/5 7/18/5
f 6/19/6 8/20/6 7/7/6 4/12/6
