# Blender v2.80 (sub 45) OBJ File: ''
# www.blender.org
o BezierCurve.001_CUBezierCurve.002
v -0.030975 0.000000 -3.908937
v -0.044270 0.000000 -3.742162
v -0.056545 0.000000 -3.588195
v -0.068102 0.000000 -3.443227
v -0.079246 0.000000 -3.303450
v -0.090279 0.000000 -3.165058
v -0.101505 0.000000 -3.024244
v -0.113228 -0.000000 -2.877199
v -0.125751 -0.000000 -2.720116
v -0.139377 -0.000000 -2.549189
v -0.154412 -0.000000 -2.360609
v -0.171157 -0.000000 -2.150569
v -0.189916 -0.000000 -1.915262
v -0.208689 -0.000000 -1.679783
v -0.225531 -0.000000 -1.468532
v -0.240827 -0.000000 -1.276664
v -0.254964 -0.000000 -1.099333
v -0.268329 -0.000000 -0.931693
v -0.281307 -0.000000 -0.768899
v -0.294286 -0.000000 -0.606106
v -0.307651 -0.000000 -0.438466
v -0.321788 -0.000000 -0.261136
v -0.337084 -0.000000 -0.069268
v -0.353926 -0.000000 0.141984
v -0.372699 -0.000000 0.377463
v -0.398211 0.029659 0.697464
v -0.419110 0.111641 0.959615
v -0.435390 0.235448 1.163815
v -0.447041 0.390584 1.309967
v -0.454057 0.566554 1.397969
v -0.456429 0.752861 1.427723
v -0.454149 0.939009 1.399130
v -0.447210 1.114502 1.312089
v -0.435603 1.268844 1.166502
v -0.419321 1.391538 0.962267
v -0.398356 1.472089 0.699288
v -0.372699 1.500000 0.377463
v -0.351061 1.467788 0.106052
v -0.332779 1.381565 -0.123273
v -0.318035 1.252196 -0.308214
v -0.307012 1.090545 -0.446470
v -0.299895 0.907478 -0.535744
v -0.296866 0.713859 -0.573737
v -0.298109 0.520554 -0.558148
v -0.303807 0.338428 -0.486681
v -0.314142 0.178346 -0.357034
v -0.329300 0.051172 -0.166910
v -0.349462 -0.032227 0.085990
v -0.374812 -0.060988 0.403965
v -0.405485 -0.058473 0.788720
v -0.440106 -0.055424 1.222987
v -0.477878 -0.051951 1.696775
v -0.518004 -0.048160 2.200092
v -0.559688 -0.044156 2.722945
v -0.602131 -0.040049 3.255342
v -0.644540 -0.035945 3.787288
v -0.686116 -0.031950 4.308794
v -0.726063 -0.028172 4.809865
v -0.763584 -0.024719 5.280512
v -0.797883 -0.021695 5.710738
v -0.828164 -0.019210 6.090555
v 0.004668 0.000000 -3.907943
v 0.007992 0.000000 -3.740672
v 0.011061 0.000000 -3.586247
v 0.013950 0.000000 -3.440847
v 0.016736 0.000000 -3.300655
v 0.019495 0.000000 -3.161851
v 0.022301 0.000000 -3.020617
v 0.025232 -0.000000 -2.873135
v 0.028363 -0.000000 -2.715585
v 0.031770 -0.000000 -2.544149
v 0.035529 -0.000000 -2.355008
v 0.039715 -0.000000 -2.144344
v 0.044405 -0.000000 -1.908337
v 0.049099 -0.000000 -1.672157
v 0.053309 -0.000000 -1.460277
v 0.057134 -0.000000 -1.267838
v 0.060668 -0.000000 -1.089980
v 0.064009 -0.000000 -0.921842
v 0.067254 -0.000000 -0.758564
v 0.070499 -0.000000 -0.595285
v 0.073840 -0.000000 -0.427147
v 0.077375 -0.000000 -0.249289
v 0.081199 -0.000000 -0.056850
v 0.085410 -0.000000 0.155029
v 0.090104 -0.000000 0.391209
v 0.096482 0.029659 0.712162
v 0.101707 0.111641 0.975093
v 0.105777 0.235448 1.179902
v 0.108690 0.390584 1.326488
v 0.110444 0.566554 1.414752
v 0.111037 0.752861 1.444594
v 0.110467 0.939009 1.415916
v 0.108732 1.114502 1.328616
v 0.105830 1.268844 1.182595
v 0.101760 1.391539 0.977754
v 0.096518 1.472089 0.713992
v 0.090104 1.500000 0.391210
v 0.084694 1.467788 0.118991
v 0.080123 1.381565 -0.111017
v 0.076437 1.252196 -0.296507
v 0.073681 1.090545 -0.435175
v 0.071902 0.907478 -0.524715
v 0.071144 0.713859 -0.562820
v 0.071455 0.520554 -0.547185
v 0.072879 0.338428 -0.475505
v 0.075464 0.178346 -0.345473
v 0.079253 0.051172 -0.154783
v 0.084294 -0.032227 0.098869
v 0.090632 -0.060988 0.417791
v 0.098300 -0.058472 0.803689
v 0.106956 -0.055425 1.239249
v 0.116399 -0.051951 1.714447
v 0.126431 -0.048160 2.219261
v 0.136853 -0.044156 2.743670
v 0.147464 -0.040049 3.277649
v 0.158067 -0.035945 3.811179
v 0.168462 -0.031950 4.334236
v 0.178449 -0.028172 4.836800
v 0.187829 -0.024719 5.308844
v 0.196405 -0.021696 5.740352
v 0.203974 -0.019210 6.121297
v 0.040674 0.000000 -3.910910
v 0.058604 0.000000 -3.744571
v 0.075158 0.000000 -3.591004
v 0.090743 0.000000 -3.446414
v 0.105771 0.000000 -3.307001
v 0.120650 0.000000 -3.168970
v 0.135789 0.000000 -3.028522
v 0.151598 -0.000000 -2.881860
v 0.168486 -0.000000 -2.725187
v 0.186863 -0.000000 -2.554704
v 0.207137 -0.000000 -2.366616
v 0.229719 -0.000000 -2.157123
v 0.255017 -0.000000 -1.922429
v 0.280334 -0.000000 -1.687563
v 0.303046 -0.000000 -1.476862
v 0.323674 -0.000000 -1.285494
v 0.342739 -0.000000 -1.108625
v 0.360763 -0.000000 -0.941422
v 0.378265 -0.000000 -0.779052
v 0.395767 -0.000000 -0.616683
v 0.413790 -0.000000 -0.449480
v 0.432855 -0.000000 -0.272611
v 0.453483 -0.000000 -0.081243
v 0.476195 -0.000000 0.129458
v 0.501512 -0.000000 0.364324
v 0.535916 0.029659 0.683491
v 0.564100 0.111641 0.944959
v 0.586054 0.235448 1.148628
v 0.601767 0.390584 1.294398
v 0.611229 0.566554 1.382172
v 0.614428 0.752861 1.411849
v 0.611354 0.939010 1.383329
v 0.601995 1.114502 1.296515
v 0.586343 1.268844 1.151307
v 0.564385 1.391538 0.947605
v 0.536112 1.472089 0.685311
v 0.501512 1.500000 0.364324
v 0.472333 1.467788 0.093620
v 0.447677 1.381565 -0.135108
v 0.427794 1.252196 -0.319567
v 0.412930 1.090545 -0.457464
v 0.403332 0.907478 -0.546505
v 0.399247 0.713859 -0.584398
v 0.400923 0.520554 -0.568850
v 0.408607 0.338428 -0.497569
v 0.422545 0.178346 -0.368260
v 0.442986 0.051172 -0.178632
v 0.470175 -0.032227 0.073610
v 0.504361 -0.060988 0.390757
v 0.545727 -0.058472 0.774509
v 0.592416 -0.055424 1.207645
v 0.643354 -0.051951 1.680200
v 0.697466 -0.048159 2.182206
v 0.753679 -0.044156 2.703696
v 0.810918 -0.040049 3.234705
v 0.868108 -0.035945 3.765267
v 0.924176 -0.031950 4.285414
v 0.978047 -0.028172 4.785181
v 1.028647 -0.024719 5.254601
v 1.074902 -0.021695 5.683707
v 1.115736 -0.019210 6.062534
vt -2.071683 0.483255
vt -2.070753 0.500720
vt -2.126719 0.500989
vt -2.127345 0.489077
vt -2.020295 0.477880
vt -2.019085 0.500472
vt -1.971910 0.472818
vt -1.970437 0.500238
vt -1.925257 0.467938
vt -1.923531 0.500014
vt -1.879068 0.463107
vt -1.877089 0.499791
vt -1.832069 0.458191
vt -1.829836 0.499564
vt -1.782992 0.453057
vt -1.780490 0.499328
vt -1.730564 0.447573
vt -1.727777 0.499075
vt -1.673514 0.441606
vt -1.670417 0.498800
vt -1.610574 0.435022
vt -1.607134 0.498496
vt -1.540471 0.427690
vt -1.536649 0.498158
vt -1.461935 0.419475
vt -1.457685 0.497779
vt -1.383341 0.411254
vt -1.378664 0.497400
vt -1.312833 0.403879
vt -1.307772 0.497060
vt -1.248795 0.397181
vt -1.243386 0.496752
vt -1.189608 0.390990
vt -1.183878 0.496467
vt -1.133656 0.385139
vt -1.127624 0.496198
vt -1.079322 0.379457
vt -1.072996 0.495938
vt -1.024986 0.373777
vt -1.018371 0.495678
vt -0.969031 0.367931
vt -0.962123 0.495413
vt -0.909840 0.361751
vt -0.902631 0.495136
vt -0.845793 0.355076
vt -0.838278 0.494844
vt -0.775265 0.347751
vt -0.767457 0.494534
vt -0.696628 0.339647
vt -0.688598 0.494210
vt -0.589216 0.328859
vt -0.581306 0.493798
vt -0.497354 0.320304
vt -0.490096 0.493442
vt -0.417475 0.313838
vt -0.411328 0.493088
vt -0.346210 0.309282
vt -0.341492 0.492691
vt -0.280481 0.306466
vt -0.277367 0.492217
vt -0.217523 0.305270
vt -0.216058 0.491628
vt -0.154667 0.305455
vt -0.154860 0.491266
vt -0.089186 0.307215
vt -0.091019 0.490750
vt -0.018172 0.310631
vt -0.021503 0.490071
vt 0.061631 0.315827
vt 0.057093 0.489219
vt 0.153773 0.322934
vt 0.148473 0.488194
vt 0.261973 0.332013
vt 0.256488 0.487022
vt 0.353509 0.339806
vt 0.348359 0.486104
vt 0.435554 0.346425
vt 0.431053 0.485364
vt 0.511117 0.351773
vt 0.507503 0.484768
vt 0.582305 0.355762
vt 0.579764 0.484287
vt 0.650420 0.358304
vt 0.649119 0.483879
vt 0.716312 0.359318
vt 0.716436 0.483478
vt 0.781048 0.358556
vt 0.782653 0.483482
vt 0.846446 0.356162
vt 0.849410 0.483495
vt 0.915366 0.352090
vt 0.919546 0.483575
vt 0.991929 0.346239
vt 0.997145 0.483751
vt 1.081054 0.338467
vt 1.087109 0.484053
vt 1.187849 0.328630
vt 1.194579 0.484509
vt 1.316455 0.316625
vt 1.323816 0.485148
vt 1.461553 0.303029
vt 1.469562 0.485938
vt 1.619827 0.288179
vt 1.628529 0.486837
vt 1.787952 0.272399
vt 1.797392 0.487808
vt 1.962598 0.256005
vt 1.972802 0.488823
vt 2.140431 0.239310
vt 2.151412 0.489860
vt 2.318112 0.222630
vt 2.329872 0.490898
vt 2.492304 0.206277
vt 2.504828 0.491915
vt 2.659672 0.190564
vt 2.672930 0.492892
vt 2.816877 0.175805
vt 2.830822 0.493810
vt 2.960581 0.162315
vt 2.975156 0.494650
vt 3.087446 0.150404
vt 3.102576 0.495390
vt -2.071639 0.517678
vt -2.127414 0.513054
vt -2.020147 0.521946
vt -1.971665 0.525965
vt -1.924919 0.529841
vt -1.878636 0.533678
vt -1.831542 0.537581
vt -1.782365 0.541658
vt -1.729832 0.546013
vt -1.672667 0.550752
vt -1.609600 0.555981
vt -1.539355 0.561804
vt -1.460660 0.568328
vt -1.381908 0.574857
vt -1.311258 0.580714
vt -1.247091 0.586033
vt -1.187786 0.590949
vt -1.131722 0.595596
vt -1.077280 0.600108
vt -1.022839 0.604618
vt -0.966779 0.609261
vt -0.907480 0.614168
vt -0.843327 0.619467
vt -0.772704 0.625282
vt -0.693998 0.631716
vt -0.586612 0.640305
vt -0.494852 0.647123
vt -0.415062 0.652227
vt -0.343811 0.655697
vt -0.277983 0.657609
vt -0.214774 0.658000
vt -0.151691 0.656648
vt -0.086190 0.653739
vt -0.015331 0.649188
vt 0.064174 0.642867
vt 0.155916 0.634651
vt 0.263662 0.624491
vt 0.354827 0.615968
vt 0.436556 0.608835
vt 0.511872 0.603125
vt 0.582890 0.598877
vt 0.650944 0.596142
vt 0.716952 0.594978
vt 0.781850 0.595222
vt 0.847232 0.597082
vt 0.916011 0.600631
vt 0.992350 0.606011
vt 1.081224 0.613414
vt 1.187805 0.623013
vt 1.316286 0.634888
vt 1.461324 0.648406
vt 1.619574 0.663197
vt 1.787693 0.678924
vt 1.962338 0.695267
vt 2.140173 0.711910
vt 2.317858 0.728540
vt 2.492055 0.744843
vt 2.659428 0.760508
vt 2.816636 0.775222
vt 2.960343 0.788672
vt 3.087212 0.800545
vn 0.0000 1.0000 0.0000
vn 0.0014 0.9988 -0.0475
vn -0.0008 0.9989 -0.0474
vn 0.0059 0.9799 -0.1992
vn -0.0035 0.9800 -0.1989
vn 0.0123 0.9102 -0.4138
vn -0.0073 0.9105 -0.4133
vn 0.0187 0.7760 -0.6305
vn -0.0111 0.7765 -0.6301
vn 0.0244 0.5711 -0.8205
vn -0.0145 0.5717 -0.8203
vn 0.0283 0.3051 -0.9519
vn -0.0168 0.3056 -0.9520
vn 0.0297 0.0030 -0.9995
vn -0.0176 0.0030 -0.9998
vn 0.0283 -0.3007 -0.9533
vn -0.0168 -0.3011 -0.9534
vn 0.0244 -0.5700 -0.8213
vn -0.0145 -0.5706 -0.8211
vn 0.0187 -0.7774 -0.6287
vn -0.0111 -0.7779 -0.6283
vn 0.0121 -0.9123 -0.4093
vn -0.0072 -0.9125 -0.4089
vn 0.0057 -0.9811 -0.1935
vn -0.0034 -0.9811 -0.1931
vn -0.0004 -0.9999 0.0125
vn 0.0002 -0.9999 0.0127
vn -0.0069 -0.9726 0.2325
vn 0.0042 -0.9726 0.2324
vn -0.0137 -0.8866 0.4622
vn 0.0082 -0.8868 0.4620
vn -0.0198 -0.7432 0.6688
vn 0.0120 -0.7435 0.6686
vn -0.0247 -0.5511 0.8340
vn 0.0150 -0.5515 0.8340
vn -0.0281 -0.3199 0.9470
vn 0.0170 -0.3202 0.9472
vn -0.0296 -0.0569 0.9979
vn 0.0179 -0.0570 0.9982
vn -0.0289 0.2267 0.9735
vn 0.0175 0.2269 0.9738
vn -0.0256 0.5060 0.8621
vn 0.0155 0.5064 0.8621
vn -0.0199 0.7416 0.6706
vn 0.0120 0.7419 0.6704
vn -0.0129 0.9007 0.4343
vn 0.0078 0.9008 0.4341
vn -0.0059 0.9799 0.1990
vn 0.0035 0.9800 0.1990
vn -0.0012 0.9992 0.0402
vn 0.0007 0.9992 0.0402
vn 0.0002 1.0000 -0.0067
vn -0.0001 1.0000 -0.0067
vn 0.0002 1.0000 -0.0071
vn -0.0001 1.0000 -0.0071
vn 0.0002 1.0000 -0.0074
vn -0.0001 1.0000 -0.0074
vn 0.0002 1.0000 -0.0076
vn -0.0001 1.0000 -0.0076
vn 0.0002 1.0000 -0.0077
vn -0.0001 1.0000 -0.0077
vn 0.0002 1.0000 -0.0065
vn -0.0001 1.0000 -0.0065
vn -0.0031 0.9989 -0.0472
vn -0.0129 0.9800 -0.1983
vn -0.0269 0.9105 -0.4125
vn -0.0409 0.7764 -0.6289
vn -0.0533 0.5715 -0.8188
vn -0.0618 0.3054 -0.9502
vn -0.0649 0.0030 -0.9979
vn -0.0619 -0.3010 -0.9516
vn -0.0533 -0.5704 -0.8196
vn -0.0408 -0.7778 -0.6272
vn -0.0266 -0.9125 -0.4081
vn -0.0125 -0.9812 -0.1926
vn 0.0009 -0.9999 0.0130
vn 0.0152 -0.9724 0.2326
vn 0.0302 -0.8864 0.4618
vn 0.0438 -0.7430 0.6679
vn 0.0547 -0.5509 0.8328
vn 0.0621 -0.3197 0.9454
vn 0.0655 -0.0569 0.9962
vn 0.0639 0.2265 0.9719
vn 0.0566 0.5058 0.8608
vn 0.0439 0.7413 0.6697
vn 0.0284 0.9004 0.4340
vn 0.0130 0.9799 0.1992
vn 0.0026 0.9992 0.0403
vn -0.0004 1.0000 -0.0067
vn -0.0005 1.0000 -0.0071
vn -0.0005 1.0000 -0.0074
vn -0.0005 1.0000 -0.0075
vn -0.0005 1.0000 -0.0076
vn -0.0005 1.0000 -0.0077
vn -0.0004 1.0000 -0.0065
s 1
f 2/1/1 63/2/1 62/3/1 1/4/1
f 3/5/1 64/6/1 63/2/1 2/1/1
f 4/7/1 65/8/1 64/6/1 3/5/1
f 5/9/1 66/10/1 65/8/1 4/7/1
f 6/11/1 67/12/1 66/10/1 5/9/1
f 7/13/1 68/14/1 67/12/1 6/11/1
f 8/15/1 69/16/1 68/14/1 7/13/1
f 9/17/1 70/18/1 69/16/1 8/15/1
f 10/19/1 71/20/1 70/18/1 9/17/1
f 11/21/1 72/22/1 71/20/1 10/19/1
f 12/23/1 73/24/1 72/22/1 11/21/1
f 13/25/1 74/26/1 73/24/1 12/23/1
f 14/27/1 75/28/1 74/26/1 13/25/1
f 15/29/1 76/30/1 75/28/1 14/27/1
f 16/31/1 77/32/1 76/30/1 15/29/1
f 17/33/1 78/34/1 77/32/1 16/31/1
f 18/35/1 79/36/1 78/34/1 17/33/1
f 19/37/1 80/38/1 79/36/1 18/35/1
f 20/39/1 81/40/1 80/38/1 19/37/1
f 21/41/1 82/42/1 81/40/1 20/39/1
f 22/43/1 83/44/1 82/42/1 21/41/1
f 23/45/1 84/46/1 83/44/1 22/43/1
f 24/47/1 85/48/1 84/46/1 23/45/1
f 25/49/2 86/50/3 85/48/1 24/47/1
f 26/51/4 87/52/5 86/50/3 25/49/2
f 27/53/6 88/54/7 87/52/5 26/51/4
f 28/55/8 89/56/9 88/54/7 27/53/6
f 29/57/10 90/58/11 89/56/9 28/55/8
f 30/59/12 91/60/13 90/58/11 29/57/10
f 31/61/14 92/62/15 91/60/13 30/59/12
f 32/63/16 93/64/17 92/62/15 31/61/14
f 33/65/18 94/66/19 93/64/17 32/63/16
f 34/67/20 95/68/21 94/66/19 33/65/18
f 35/69/22 96/70/23 95/68/21 34/67/20
f 36/71/24 97/72/25 96/70/23 35/69/22
f 37/73/26 98/74/27 97/72/25 36/71/24
f 38/75/28 99/76/29 98/74/27 37/73/26
f 39/77/30 100/78/31 99/76/29 38/75/28
f 40/79/32 101/80/33 100/78/31 39/77/30
f 41/81/34 102/82/35 101/80/33 40/79/32
f 42/83/36 103/84/37 102/82/35 41/81/34
f 43/85/38 104/86/39 103/84/37 42/83/36
f 44/87/40 105/88/41 104/86/39 43/85/38
f 45/89/42 106/90/43 105/88/41 44/87/40
f 46/91/44 107/92/45 106/90/43 45/89/42
f 47/93/46 108/94/47 107/92/45 46/91/44
f 48/95/48 109/96/49 108/94/47 47/93/46
f 49/97/50 110/98/51 109/96/49 48/95/48
f 50/99/52 111/100/53 110/98/51 49/97/50
f 51/101/54 112/102/55 111/100/53 50/99/52
f 52/103/56 113/104/57 112/102/55 51/101/54
f 53/105/58 114/106/59 113/104/57 52/103/56
f 54/107/60 115/108/61 114/106/59 53/105/58
f 55/109/60 116/110/61 115/108/61 54/107/60
f 56/111/60 117/112/61 116/110/61 55/109/60
f 57/113/58 118/114/59 117/112/61 56/111/60
f 58/115/56 119/116/57 118/114/59 57/113/58
f 59/117/54 120/118/55 119/116/57 58/115/56
f 60/119/52 121/120/53 120/118/55 59/117/54
f 61/121/62 122/122/63 121/120/53 60/119/52
f 63/2/1 124/123/1 123/124/1 62/3/1
f 64/6/1 125/125/1 124/123/1 63/2/1
f 65/8/1 126/126/1 125/125/1 64/6/1
f 66/10/1 127/127/1 126/126/1 65/8/1
f 67/12/1 128/128/1 127/127/1 66/10/1
f 68/14/1 129/129/1 128/128/1 67/12/1
f 69/16/1 130/130/1 129/129/1 68/14/1
f 70/18/1 131/131/1 130/130/1 69/16/1
f 71/20/1 132/132/1 131/131/1 70/18/1
f 72/22/1 133/133/1 132/132/1 71/20/1
f 73/24/1 134/134/1 133/133/1 72/22/1
f 74/26/1 135/135/1 134/134/1 73/24/1
f 75/28/1 136/136/1 135/135/1 74/26/1
f 76/30/1 137/137/1 136/136/1 75/28/1
f 77/32/1 138/138/1 137/137/1 76/30/1
f 78/34/1 139/139/1 138/138/1 77/32/1
f 79/36/1 140/140/1 139/139/1 78/34/1
f 80/38/1 141/141/1 140/140/1 79/36/1
f 81/40/1 142/142/1 141/141/1 80/38/1
f 82/42/1 143/143/1 142/142/1 81/40/1
f 83/44/1 144/144/1 143/143/1 82/42/1
f 84/46/1 145/145/1 144/144/1 83/44/1
f 85/48/1 146/146/1 145/145/1 84/46/1
f 86/50/3 147/147/64 146/146/1 85/48/1
f 87/52/5 148/148/65 147/147/64 86/50/3
f 88/54/7 149/149/66 148/148/65 87/52/5
f 89/56/9 150/150/67 149/149/66 88/54/7
f 90/58/11 151/151/68 150/150/67 89/56/9
f 91/60/13 152/152/69 151/151/68 90/58/11
f 92/62/15 153/153/70 152/152/69 91/60/13
f 93/64/17 154/154/71 153/153/70 92/62/15
f 94/66/19 155/155/72 154/154/71 93/64/17
f 95/68/21 156/156/73 155/155/72 94/66/19
f 96/70/23 157/157/74 156/156/73 95/68/21
f 97/72/25 158/158/75 157/157/74 96/70/23
f 98/74/27 159/159/76 158/158/75 97/72/25
f 99/76/29 160/160/77 159/159/76 98/74/27
f 100/78/31 161/161/78 160/160/77 99/76/29
f 101/80/33 162/162/79 161/161/78 100/78/31
f 102/82/35 163/163/80 162/162/79 101/80/33
f 103/84/37 164/164/81 163/163/80 102/82/35
f 104/86/39 165/165/82 164/164/81 103/84/37
f 105/88/41 166/166/83 165/165/82 104/86/39
f 106/90/43 167/167/84 166/166/83 105/88/41
f 107/92/45 168/168/85 167/167/84 106/90/43
f 108/94/47 169/169/86 168/168/85 107/92/45
f 109/96/49 170/170/87 169/169/86 108/94/47
f 110/98/51 171/171/88 170/170/87 109/96/49
f 111/100/53 172/172/89 171/171/88 110/98/51
f 112/102/55 173/173/90 172/172/89 111/100/53
f 113/104/57 174/174/91 173/173/90 112/102/55
f 114/106/59 175/175/92 174/174/91 113/104/57
f 115/108/61 176/176/93 175/175/92 114/106/59
f 116/110/61 177/177/94 176/176/93 115/108/61
f 117/112/61 178/178/93 177/177/94 116/110/61
f 118/114/59 179/179/92 178/178/93 117/112/61
f 119/116/57 180/180/91 179/179/92 118/114/59
f 120/118/55 181/181/90 180/180/91 119/116/57
f 121/120/53 182/182/89 181/181/90 120/118/55
f 122/122/63 183/183/95 182/182/89 121/120/53
