# Blender v2.79 (sub 0) OBJ File: ''
# www.blender.org
o Cylinder
v 1.620243 10.336747 2.160815
v 0.565890 10.346021 2.643665
v -0.057856 10.287182 1.643180
v 0.608504 10.359116 0.810368
v 1.632903 10.303934 1.283958
v 1.736467 13.464977 2.068141
v 1.064623 13.262172 2.878899
v 0.033797 13.387053 2.400038
v 0.071961 13.486369 1.542452
v 1.138994 13.279609 1.059190
v 0.902761 16.094830 4.243570
v -0.351714 16.094830 3.827903
v -0.257896 16.094830 2.750859
v 1.163721 16.094830 2.751713
v 2.180058 12.280050 -0.114099
v 1.309490 13.018043 -0.890825
v 1.955877 12.979264 -1.732339
v 2.827212 12.632636 -0.839484
v 2.472288 12.894048 -0.446720
v 1.097349 14.705328 -0.426160
v 0.606101 14.827047 -1.116338
v 1.223396 14.667000 -1.708269
v 1.849485 14.722356 -1.483172
v 1.934497 14.622700 -0.628446
v 0.936897 16.191299 -0.948081
v 0.333760 16.191299 -1.901707
v 1.227298 16.191299 -2.296208
v 1.716315 16.191299 -1.654012
v 0.663378 -0.148774 -0.751137
v 0.935674 -0.148004 0.276865
v 0.174831 -0.150225 1.027210
v -0.671602 -0.146158 0.827717
v -1.004145 -0.154978 -0.215469
v -1.000110 1.776962 0.235458
v -0.235471 -0.153704 -1.026815
v -0.717068 1.947313 -0.730024
v 0.534023 5.615827 -0.930610
v 1.331756 5.092788 0.000000
v 0.679298 5.357008 0.873846
v -0.200182 5.260142 0.645858
v -0.482959 5.131112 -0.226543
v 2.843251 9.047111 -0.647445
v 3.151585 9.232317 0.237906
v 1.942295 8.152918 0.872929
v 1.287405 8.920770 0.012228
v 1.685996 9.356866 -0.637869
v 5.049570 16.252522 0.234630
v 3.866007 16.254763 -0.861119
v 4.817432 16.253538 -0.637071
v 4.420078 16.254282 0.869132
v 3.429194 16.254105 0.556632
v 2.994043 11.951573 -0.877797
v 2.293307 11.757339 -0.624835
v 0.776819 7.845182 -0.116971
v 1.764267 9.464302 0.705271
v 1.061565 7.826497 0.687392
v -2.717467 24.870560 -4.605699
v 4.778169 24.897974 -4.766613
v 7.339890 24.794701 2.363712
v 1.333134 24.862392 6.900794
v -4.886291 24.859896 2.636299
v -5.141589 21.802406 0.246937
v -5.608239 23.336887 -1.698322
v -5.608239 23.336887 2.697552
v 1.156422 23.336887 -6.613159
v -3.024364 23.336887 -5.254737
v 7.921082 23.336887 -1.698322
v 5.337209 23.336887 -5.254737
v 5.337209 23.336887 6.253969
v 7.921082 23.336887 2.697552
v -3.024364 23.336887 6.253969
v 1.156422 23.336887 7.612390
v -3.724836 21.759325 -2.932251
v 2.949017 21.771454 6.211220
v -3.999167 21.815178 4.287247
v -2.216123 28.156750 2.084455
v 3.611327 27.384710 -3.068964
v 5.055731 27.766232 1.859579
v 1.371987 27.766235 4.896923
v 1.042521 25.835678 -3.713152
v 3.358810 25.577274 4.499214
v -1.460142 27.766232 -2.290412
v -2.889953 26.598402 3.763208
v -2.888868 26.607069 -2.037280
v 6.061728 26.629644 0.841148
v 2.675995 26.585514 5.559861
v -1.549803 25.544239 4.192579
v 5.287024 25.671766 -0.425133
v -2.919818 25.672779 -0.663042
v 5.966054 21.042921 -6.314247
v 9.134272 21.054218 2.696111
v 2.450286 20.002066 9.379148
v -6.050797 16.705175 0.388337
v 0.467597 15.359854 3.111434
v -0.564647 21.866430 -5.683869
v -0.563165 21.811695 6.577248
v -6.861316 20.000813 -3.428376
v -7.225502 19.113605 3.175412
v 1.352366 19.113605 -8.630954
v -4.450707 18.199032 -6.515679
v 6.125258 18.199032 -7.264152
v 6.653776 19.113605 7.685095
v 9.930235 19.113605 3.175412
v -3.949043 19.113605 7.685095
v 10.105232 18.199032 -1.786163
v 1.164915 17.144199 8.495901
v -4.854615 17.123533 4.897956
v -0.935302 16.705170 -6.652486
v 7.341666 16.705172 -3.963100
v 7.341666 16.705172 4.739775
v 6.922032 21.796562 2.901027
v 6.166716 21.800915 -3.024459
v 2.921260 21.821281 -5.290155
vt 0.297888 0.944547
vt 0.290072 0.950614
vt 0.295586 0.941477
vt 0.287754 0.949072
vt 0.286937 0.955281
vt 0.284000 0.946590
vt 0.292886 0.937901
vt 0.304883 0.947325
vt 0.299022 0.959056
vt 0.295419 0.955932
vt 0.301372 0.946285
vt 0.293113 0.952717
vt 0.284303 0.960938
vt 0.287993 0.955805
vt 0.287873 0.955650
vt 0.331176 0.956116
vt 0.332180 0.955805
vt 0.331382 0.957067
vt 0.329819 0.954116
vt 0.331709 0.954818
vt 0.329216 0.955299
vt 0.323100 0.957919
vt 0.331283 0.955463
vt 0.332108 0.955595
vt 0.308541 0.901972
vt 0.310713 0.893191
vt 0.312841 0.897160
vt 0.308357 0.916948
vt 0.329090 0.905180
vt 0.326080 0.899045
vt 0.329332 0.895320
vt 0.330234 0.918773
vt 0.324958 0.921726
vt 0.323066 0.898635
vt 0.317997 0.919462
vt 0.325174 0.939386
vt 0.322305 0.954201
vt 0.320205 0.942392
vt 0.315591 0.943778
vt 0.325838 0.951556
vt 0.308547 0.950659
vt 0.332487 0.957510
vt 0.325721 0.959650
vt 0.331910 0.953863
vt 0.328939 0.952569
vt 0.333438 0.955500
vt 0.332142 0.955474
vt 0.310245 0.936586
vt 0.333438 0.903957
vt 0.319546 0.895810
vt 0.315630 0.897542
vt 0.312153 0.919145
vt 0.313151 0.968989
vt 0.315138 0.967335
vt 0.304580 0.915503
vt 0.302902 0.929068
vt 0.306686 0.931954
vt 0.328705 0.931992
vt 0.328449 0.937113
vt 0.308315 0.944329
vt 0.305091 0.959192
vt 0.304117 0.941359
vt 0.318216 0.969748
vt 0.316926 0.967948
vt 0.310520 0.980166
vt 0.328696 0.961154
vt 0.312640 0.944147
vt 0.297031 0.930080
vt 0.953202 0.949663
vt 0.941301 0.945134
vt 0.945577 0.951301
vt 0.948493 0.944087
vt 0.963492 0.959618
vt 0.960900 0.951138
vt 0.916020 0.949174
vt 0.907808 0.950326
vt 0.907344 0.956422
vt 0.928716 0.944908
vt 0.921620 0.943312
vt 0.935366 0.941550
vt 0.955019 0.947083
vt 0.967534 0.957278
vt 0.914839 0.945938
vt 0.928764 0.941851
vt 0.942226 0.942327
vt 0.946038 0.939714
vt 0.939345 0.937055
vt 0.932174 0.938071
vt 0.924545 0.938386
vt 0.914528 0.942623
vt 0.902554 0.950216
vt 0.973325 0.956730
vt 0.966708 0.950496
vt 0.959870 0.945735
vt 0.953275 0.941651
vt 0.900572 0.956887
vt 0.942829 0.966116
vt 0.955605 0.964604
vt 0.947170 0.957371
vt 0.927313 0.963307
vt 0.921763 0.956702
vt 0.916612 0.964422
vt 0.929873 0.953506
vt 0.946897 0.953857
vt 0.937913 0.954890
vt 0.954819 0.957860
vt 0.918399 0.955986
vt 0.927491 0.951262
vt 0.937250 0.950782
vt 0.935324 0.948469
vt 0.925068 0.949614
vt 0.914782 0.956414
vt 0.909426 0.964339
vt 0.953750 0.935630
vt 0.973467 0.950800
vt 0.968637 0.941398
vt 0.910631 0.938748
vt 0.901670 0.937003
vt 0.898209 0.945669
vt 0.925473 0.932279
vt 0.918560 0.932159
vt 0.935910 0.930621
vt 0.976765 0.945348
vt 0.909501 0.934829
vt 0.944107 0.931619
vt 0.948878 0.927059
vt 0.938187 0.916746
vt 0.940468 0.927377
vt 0.927062 0.927155
vt 0.924173 0.916754
vt 0.913449 0.927551
vt 0.911490 0.928013
vt 0.897990 0.917156
vt 0.894382 0.934330
vt 0.984183 0.941906
vt 0.981473 0.925295
vt 0.967767 0.934457
vt 0.966182 0.933734
vt 0.963558 0.917929
vt 0.950789 0.927579
vt 0.959725 0.935706
vt 0.889270 0.943324
vt 0.897417 0.953427
vn -0.8412 -0.1047 0.5306
vn -0.3250 0.3634 -0.8731
vn -0.7813 0.0121 -0.6241
vn 0.8477 0.1014 -0.5206
vn 0.7712 -0.0098 0.6366
vn 0.9712 0.1673 0.1699
vn 0.0000 1.0000 0.0000
vn 0.9928 0.0796 -0.0895
vn -0.7477 -0.3603 -0.5578
vn 0.7352 0.1397 -0.6633
vn 0.3447 -0.3386 -0.8755
vn -0.9503 -0.0689 0.3035
vn -0.7257 0.0862 0.6826
vn -0.7242 -0.0691 -0.6862
vn -0.6138 0.1671 -0.7716
vn 0.7583 -0.0033 -0.6519
vn -0.6351 0.2527 -0.7299
vn 0.8953 -0.3802 -0.2322
vn 0.2511 -0.0895 -0.9638
vn -0.6459 -0.6029 -0.4684
vn 0.7394 0.2170 -0.6373
vn -0.0743 -0.6809 -0.7286
vn 0.9992 -0.0367 0.0158
vn 0.4111 -0.1429 0.9003
vn -0.9984 0.0393 -0.0399
vn 0.4197 0.0011 -0.9077
vn -0.4214 -0.0011 0.9069
vn -0.3842 0.1474 -0.9114
vn -0.9917 -0.0956 -0.0864
vn 0.0005 0.5153 -0.8570
vn -0.2841 -0.4293 0.8573
vn 0.2476 0.1772 0.9525
vn 0.7923 0.3093 -0.5260
vn 0.7763 -0.2370 0.5840
vn 0.7986 0.3031 0.5199
vn 0.3223 0.1532 -0.9342
vn -0.7001 -0.2946 -0.6505
vn -0.7563 -0.2604 0.6002
vn 0.9099 0.4127 -0.0424
vn -0.7985 0.1209 0.5897
vn -0.3810 -0.3319 -0.8630
vn 0.5812 0.5004 0.6417
vn 0.7956 0.0017 -0.6058
vn -0.6725 -0.4655 -0.5754
vn 0.2525 0.3448 0.9041
vn 0.6508 -0.3255 0.6860
vn -0.9606 0.0651 -0.2701
vn 0.0035 -1.0000 0.0005
vn -0.2558 0.0503 0.9654
vn 0.7919 -0.0556 0.6081
vn 0.6970 -0.1881 0.6920
vn -0.3244 0.0590 -0.9441
vn 0.2933 -0.0232 -0.9558
vn 0.9631 -0.0863 -0.2550
vn -0.9587 0.1118 -0.2613
vn -0.9427 0.1837 0.2784
vn -0.8867 0.4024 0.2279
vn 0.6057 -0.3486 -0.7152
vn -0.2610 0.1128 0.9587
vn -0.8587 0.4109 -0.3062
vn -0.8665 0.4397 -0.2363
vn -0.8780 0.2487 0.4091
vn -0.6290 0.2513 -0.7356
vn -0.3615 0.0965 -0.9274
vn -0.1162 0.0274 -0.9928
vn 0.9287 -0.2540 -0.2703
vn -0.8905 0.2217 -0.3973
vn 0.2290 -0.0426 -0.9725
vn 0.0013 1.0000 -0.0001
vn -0.9221 0.3252 -0.2098
vn 0.9888 0.1487 0.0087
vn -0.6641 0.1861 -0.7241
vn -0.7697 -0.5236 0.3652
vn 0.0571 -0.6053 0.7940
vn 0.3836 0.5799 -0.7187
vn -0.2994 0.0942 0.9494
vn 0.3728 -0.4300 0.8223
vn -0.7764 0.1717 -0.6064
vn -0.7158 -0.5106 0.4763
vn -0.3989 0.2937 -0.8687
vn -0.9934 -0.0998 -0.0558
vn -0.4181 -0.4696 0.7776
vn 0.3915 0.2873 0.8742
vn -0.8093 -0.2483 0.5323
vn -0.8371 0.1377 0.5294
vn 0.7100 -0.3205 0.6270
vn -0.0073 -0.9999 0.0108
vn 0.0046 -1.0000 0.0028
vn 0.0037 -1.0000 -0.0002
vn -0.2288 0.0527 0.9720
vn 0.7021 -0.0155 0.7119
vn 0.5761 -0.1758 0.7982
vn -0.8546 0.4151 0.3122
vn -0.2439 0.1105 0.9635
vn -0.9146 0.2315 0.3315
vn 0.9348 -0.2529 -0.2492
vn -0.8774 0.2243 -0.4241
vn 0.3403 -0.0919 -0.9358
vn -0.0003 1.0000 0.0004
vn 0.0031 1.0000 0.0003
vn -0.8992 0.3388 -0.2769
vn 0.9905 0.1365 0.0162
vn 0.3710 0.5656 -0.7365
vn -0.2761 0.0849 0.9574
vn -0.8274 -0.4858 0.2816
vn -0.6256 0.7576 -0.1863
vn -0.5941 0.7847 -0.1768
vn -0.0163 0.7791 -0.6267
vn 0.5846 0.7866 -0.1987
vn 0.3784 0.7858 0.4893
vn -0.3506 0.7849 0.5109
vn -0.7484 0.3799 -0.5437
vn 0.2861 0.3778 -0.8806
vn 0.9289 0.3703 0.0000
vn 0.2861 0.3776 0.8806
vn -0.7493 0.3771 0.5444
vn -0.7766 -0.5898 0.2214
vn -0.7864 -0.2347 0.5714
vn -0.4506 -0.5840 0.6752
vn 0.0746 -0.6163 0.7840
vn 0.2767 -0.4454 0.8515
vn 0.4546 -0.7082 0.5402
vn 0.8390 -0.5442 0.0000
vn 0.6933 -0.7151 -0.0889
vn 0.4254 -0.6637 -0.6153
vn 0.2796 -0.4256 -0.8606
vn 0.0822 -0.5994 -0.7962
vn -0.4886 -0.6462 -0.5863
vn -0.7218 -0.4516 -0.5244
vn -0.7220 -0.6168 -0.3134
vn -0.2962 -0.2848 0.9117
vn -0.2786 0.4323 0.8576
vn 0.7386 -0.4081 0.5366
vn 0.7358 0.4158 0.5346
vn 0.7468 -0.3845 -0.5426
vn 0.7312 0.4280 -0.5312
vn -0.3005 -0.2328 -0.9249
vn -0.2803 0.4211 -0.8626
vn -0.9567 -0.2910 0.0000
vn -0.9036 0.4283 0.0000
vn 0.0629 0.9950 -0.0779
vn 0.0506 0.9945 -0.0918
vn 0.0556 0.9962 0.0674
vn -0.6388 0.7487 -0.1772
vn -0.0929 0.5098 -0.8553
vn 0.6118 0.7545 -0.2377
vn 0.4204 0.7505 0.5099
vn -0.3540 0.7520 0.5560
vn -0.6416 -0.7500 0.1612
vn -0.0373 -0.7362 0.6758
vn 0.5968 -0.7720 0.2189
vn 0.4989 -0.5481 -0.6713
vn -0.3744 -0.7629 -0.5271
vn -0.3072 -0.0029 0.9516
vn -0.3011 0.1919 0.9341
vn 0.8112 -0.0623 0.5815
vn 0.7966 0.1913 0.5734
vn 0.8484 0.0133 -0.5291
vn -0.3443 0.2253 -0.9114
vn -0.9995 0.0329 -0.0001
vn -0.9177 0.3973 0.0004
vn 0.6093 0.7653 -0.2078
vn -0.4519 0.8662 -0.2131
vn 0.0284 0.7396 -0.6724
vn 0.7211 0.6445 -0.2543
vn 0.3647 0.7921 0.4894
vn -0.3845 0.7198 0.5780
vn 0.3167 0.3164 -0.8942
vn 0.9277 0.3717 -0.0358
vn -0.6552 0.5866 0.4760
vn -0.2624 -0.9519 0.1579
vn -0.1948 -0.9232 0.3312
vn 0.1145 -0.9473 0.2991
vn 0.1921 -0.9814 0.0000
vn 0.4755 -0.8797 0.0000
vn 0.0464 -0.9886 -0.1429
vn 0.1469 -0.8797 -0.4523
vn -0.1554 -0.9814 -0.1129
vn -0.3847 -0.8797 -0.2795
vn -0.7229 -0.6436 0.2515
vn -0.7364 -0.4142 0.5350
vn -0.3662 -0.6969 0.6166
vn 0.2709 -0.3934 0.8786
vn 0.3413 -0.6870 0.6415
vn 0.7206 -0.6769 0.1502
vn 0.0798 -0.6769 -0.7317
vn 0.4522 0.8839 -0.1192
vn -0.7867 -0.5400 -0.2992
vn -0.2259 -0.1935 0.9547
vn -0.2782 0.6424 0.7141
vn 0.7271 -0.4384 0.5283
vn 0.7302 0.4305 0.5305
vn 0.6814 -0.5391 -0.4951
vn 0.7864 0.2349 -0.5713
vn -0.2346 -0.4743 -0.8486
vn -0.3609 0.5528 -0.7511
vn -0.4214 0.6006 -0.6795
vn -0.9343 -0.3428 -0.0976
vn -0.7659 0.6415 0.0439
vn -0.6677 0.7207 0.1865
vn 0.0614 0.8673 0.4941
vn -0.4241 0.6619 0.6181
vn -0.2418 0.9658 0.0938
vn 0.2516 0.9607 0.1169
vn -0.0176 0.7150 -0.6989
vn 0.1872 0.9631 -0.1936
vn 0.4448 0.6836 0.5787
vn -0.1974 0.9586 -0.2052
vn -0.0232 0.9634 0.2672
vn -0.3927 0.8186 -0.4191
vn 0.1673 0.9585 -0.2310
vn 0.3616 0.8038 0.4723
vn 0.0649 0.8780 -0.4743
s off
f 2/1/1 8/2/1 3/3/1
f 9/4/2 13/5/2 10/6/2
f 3/3/3 9/4/3 4/7/3
f 5/8/4 10/9/4 6/10/4
f 1/11/5 6/10/5 7/12/5
f 6/10/6 14/13/6 11/14/6
f 14/13/7 12/15/7 11/14/7
f 23/16/8 28/17/8 24/18/8
f 16/19/9 21/20/9 17/21/9
f 17/21/10 23/16/10 18/22/10
f 22/23/11 27/24/11 23/16/11
f 34/25/12 33/26/12 32/27/12
f 32/27/13 40/28/13 34/25/13
f 36/29/14 35/30/14 33/31/14
f 36/29/15 41/32/15 37/33/15
f 29/34/16 37/33/16 38/35/16
f 37/33/17 46/36/17 52/37/17
f 38/35/18 42/38/18 43/39/18
f 37/33/19 52/37/19 42/38/19
f 53/40/20 16/19/20 17/21/20
f 52/37/21 17/21/21 18/22/21
f 53/40/22 17/21/22 52/37/22
f 1/11/23 5/8/23 6/10/23
f 2/1/24 1/11/24 7/12/24
f 3/3/25 8/2/25 9/4/25
f 5/8/26 4/41/26 10/9/26
f 2/1/27 7/12/27 8/2/27
f 4/7/28 9/4/28 10/6/28
f 13/5/29 8/2/29 12/15/29
f 10/6/30 13/5/30 14/13/30
f 12/15/31 7/12/31 11/14/31
f 20/42/32 19/43/32 24/18/32
f 6/10/33 10/9/33 14/13/33
f 7/12/34 6/10/34 11/14/34
f 19/43/35 18/22/35 24/18/35
f 17/21/36 22/23/36 23/16/36
f 17/21/37 21/20/37 22/23/37
f 20/44/38 16/19/38 15/45/38
f 27/24/7 25/46/7 28/17/7
f 18/22/39 23/16/39 24/18/39
f 25/46/40 21/20/40 20/44/40
f 22/23/41 26/47/41 27/24/41
f 24/18/42 28/17/42 25/46/42
f 23/16/43 27/24/43 28/17/43
f 22/23/44 21/20/44 26/47/44
f 20/42/45 24/18/45 25/46/45
f 44/48/46 38/35/46 43/39/46
f 34/49/47 36/29/47 33/31/47
f 30/50/48 31/51/48 33/26/48
f 40/28/49 31/51/49 39/52/49
f 31/51/50 38/35/50 39/52/50
f 50/53/51 43/39/51 47/54/51
f 35/30/52 36/29/52 37/33/52
f 29/34/53 35/30/53 37/33/53
f 30/50/54 29/34/54 38/35/54
f 36/29/55 34/49/55 41/32/55
f 34/25/56 40/28/56 41/55/56
f 40/28/57 54/56/57 41/55/57
f 38/35/58 37/33/58 42/38/58
f 39/52/59 56/57/59 40/28/59
f 46/36/60 41/32/60 54/58/60
f 54/58/61 45/59/61 46/36/61
f 55/60/62 15/61/62 45/62/62
f 37/33/63 41/32/63 46/36/63
f 52/37/64 46/36/64 53/40/64
f 52/37/65 18/22/65 48/63/65
f 49/64/66 43/39/66 42/38/66
f 15/45/67 46/36/67 45/59/67
f 49/64/68 52/37/68 48/63/68
f 48/63/69 50/53/69 49/64/69
f 51/65/70 19/43/70 15/66/70
f 1/11/71 55/60/71 5/8/71
f 18/22/72 19/43/72 48/63/72
f 53/40/73 15/45/73 16/19/73
f 56/57/74 44/48/74 2/1/74
f 4/41/75 55/60/75 45/67/75
f 55/60/76 50/53/76 51/65/76
f 44/48/77 1/11/77 2/1/77
f 54/56/78 3/3/78 4/7/78
f 3/3/79 56/57/79 2/1/79
f 45/68/80 54/56/80 4/7/80
f 14/13/7 13/5/7 12/15/7
f 13/5/81 9/4/81 8/2/81
f 12/15/82 8/2/82 7/12/82
f 20/42/83 15/66/83 19/43/83
f 20/44/84 21/20/84 16/19/84
f 27/24/7 26/47/7 25/46/7
f 25/46/85 26/47/85 21/20/85
f 44/48/86 39/52/86 38/35/86
f 31/51/87 32/27/87 33/26/87
f 33/31/88 35/30/88 29/34/88
f 29/34/89 30/50/89 33/31/89
f 40/28/90 32/27/90 31/51/90
f 31/51/91 30/50/91 38/35/91
f 50/53/92 44/48/92 43/39/92
f 40/28/93 56/57/93 54/56/93
f 39/52/94 44/48/94 56/57/94
f 55/60/95 51/65/95 15/61/95
f 49/64/96 47/54/96 43/39/96
f 15/45/97 53/40/97 46/36/97
f 49/64/98 42/38/98 52/37/98
f 51/65/99 50/53/99 48/63/99
f 50/53/100 47/54/100 49/64/100
f 51/65/101 48/63/101 19/43/101
f 1/11/102 44/48/102 55/60/102
f 4/41/103 5/8/103 55/60/103
f 55/60/104 44/48/104 50/53/104
f 3/3/105 54/56/105 56/57/105
f 57/69/106 61/70/106 89/71/106
f 57/69/107 63/72/107 61/70/107
f 58/73/108 65/74/108 57/69/108
f 59/75/109 67/76/109 58/77/109
f 60/78/110 69/79/110 59/75/110
f 61/70/111 71/80/111 60/78/111
f 57/69/112 66/81/112 63/72/112
f 58/73/113 68/82/113 65/74/113
f 59/75/114 70/83/114 67/76/114
f 60/78/115 72/84/115 69/79/115
f 61/70/116 64/85/116 71/80/116
f 64/85/117 62/86/117 75/87/117
f 64/85/118 75/87/118 71/80/118
f 71/80/119 75/87/119 96/88/119
f 72/84/120 96/88/120 74/89/120
f 72/84/121 74/89/121 69/79/121
f 69/79/122 74/89/122 111/90/122
f 70/83/123 111/90/123 67/76/123
f 67/76/124 111/90/124 112/91/124
f 68/82/125 112/92/125 113/93/125
f 68/82/126 113/93/126 65/74/126
f 65/74/127 113/93/127 95/94/127
f 66/81/128 95/94/128 73/95/128
f 66/81/129 73/95/129 63/72/129
f 63/72/130 73/95/130 62/86/130
f 71/80/131 96/88/131 72/84/131
f 71/80/132 72/84/132 60/78/132
f 69/79/133 111/90/133 70/83/133
f 69/79/134 70/83/134 59/75/134
f 67/76/135 112/91/135 68/96/135
f 67/76/136 68/96/136 58/77/136
f 65/74/137 95/94/137 66/81/137
f 65/74/138 66/81/138 57/69/138
f 63/72/139 62/86/139 64/85/139
f 63/72/140 64/85/140 61/70/140
f 76/97/141 77/98/141 82/99/141
f 76/100/142 78/101/142 77/102/142
f 76/100/143 79/103/143 78/101/143
f 82/99/144 84/104/144 76/105/144
f 77/98/145 80/106/145 82/99/145
f 78/101/146 85/107/146 77/102/146
f 79/103/147 86/108/147 78/101/147
f 76/105/148 83/109/148 79/103/148
f 83/109/149 89/71/149 87/110/149
f 86/108/150 87/110/150 81/111/150
f 85/107/151 81/111/151 88/112/151
f 77/102/152 88/112/152 80/113/152
f 84/104/153 80/106/153 89/71/153
f 83/109/154 87/110/154 86/108/154
f 83/109/155 86/108/155 79/103/155
f 86/108/156 81/111/156 85/107/156
f 86/108/157 85/107/157 78/101/157
f 85/107/158 88/112/158 77/102/158
f 80/106/159 84/104/159 82/99/159
f 84/104/160 89/71/160 83/109/160
f 84/104/161 83/109/161 76/105/161
f 88/112/162 59/75/162 58/77/162
f 97/114/163 62/86/163 73/95/163
f 90/115/164 99/116/164 95/94/164
f 91/117/165 105/118/165 90/119/165
f 92/120/166 102/121/166 91/117/166
f 75/87/167 104/122/167 96/88/167
f 90/115/168 101/123/168 99/116/168
f 91/117/169 103/124/169 105/118/169
f 75/87/170 98/125/170 104/122/170
f 93/126/171 94/127/171 107/128/171
f 107/128/172 94/127/172 106/129/172
f 94/130/173 110/131/173 106/129/173
f 110/132/174 94/133/174 109/134/174
f 110/132/175 109/134/175 105/118/175
f 109/135/176 94/136/176 108/137/176
f 109/135/177 108/137/177 101/123/177
f 108/138/178 94/139/178 93/140/178
f 108/138/179 93/140/179 100/141/179
f 98/125/180 93/126/180 107/128/180
f 98/125/181 107/128/181 104/122/181
f 104/122/182 107/128/182 106/129/182
f 92/120/183 106/129/183 102/121/183
f 102/121/184 106/129/184 110/132/184
f 103/124/185 110/132/185 105/118/185
f 99/116/186 101/123/186 108/138/186
f 91/117/187 90/119/187 112/91/187 111/90/187
f 97/114/188 100/141/188 93/126/188
f 104/122/189 106/129/189 92/120/189
f 104/122/190 92/120/190 96/88/190
f 102/121/191 110/132/191 103/124/191
f 102/121/192 103/124/192 91/117/192
f 105/118/193 109/134/193 101/142/193
f 105/118/194 101/142/194 90/119/194
f 99/116/195 108/138/195 100/141/195
f 99/116/196 100/141/196 95/94/196
f 95/94/197 100/141/197 97/114/197
f 97/114/198 93/126/198 98/125/198
f 97/114/199 98/125/199 62/86/199
f 62/86/200 98/125/200 75/87/200
f 74/89/201 96/88/201 92/120/201
f 61/70/202 60/78/202 87/110/202
f 89/71/203 61/70/203 87/110/203
f 81/111/204 59/75/204 88/112/204
f 80/106/205 58/73/205 57/69/205
f 88/112/206 58/77/206 80/113/206
f 81/111/207 60/78/207 59/75/207
f 80/106/208 57/69/208 89/71/208
f 87/110/209 60/78/209 81/111/209
f 95/94/210 97/114/210 73/95/210
f 112/91/211 90/119/211 113/143/211
f 92/120/212 91/117/212 111/90/212 74/89/212
f 113/93/213 90/115/213 95/94/213
