# Blender v2.80 (sub 51) OBJ File: ''
# www.blender.org
mtllib tree_16.mtl
o Cylinder
v 0.030259 3.637323 -1.821519
v 1.431720 3.663093 -1.157308
v 1.787092 3.636950 0.352315
v 0.828772 3.578582 1.570572
v -0.721604 3.531939 1.580091
v -1.696573 3.532146 0.373704
v -1.361962 3.579046 -1.140154
v 0.091206 1.087983 -2.445509
v 2.037074 1.221503 -1.474782
v 2.487697 1.350331 0.652866
v 1.103746 1.377458 2.335271
v -1.072635 1.282456 2.305548
v -2.402587 1.136864 0.586080
v -1.884630 1.050315 -1.528339
v 0.100426 2.585692 -2.178669
v 1.734895 2.600977 -1.331708
v 2.094328 2.504930 0.471246
v 0.908065 2.369875 1.872533
v -0.930613 2.297513 1.816954
v -2.037145 2.342332 0.346362
v -1.578290 2.470583 -1.431857
v 0.894687 2.527615 -0.701776
v 0.010465 2.515405 -1.095877
v -0.877724 2.455853 -0.722720
v 1.218364 2.479622 0.295700
v -1.219137 2.381351 0.260079
v -0.605199 2.347504 1.222059
v 0.577102 2.394974 1.242524
v -0.047509 3.596353 0.882898
v 0.760718 3.628633 -0.567380
v -0.897190 3.560697 0.184008
v 0.893087 3.612895 0.241186
v 0.022938 3.616032 -0.956667
v -0.723975 3.585014 -0.601229
v 0.040599 4.573231 -1.506187
v 1.251387 4.618572 -0.905688
v 1.535823 4.677563 0.415023
v 0.679721 4.705781 1.461424
v -0.021205 7.113311 -0.050743
v -0.672257 4.681979 1.445554
v -1.502043 4.624079 0.379362
v -1.184793 4.575682 -0.934286
v 0.923165 4.619489 -0.746144
v 0.005596 4.585482 -1.192590
v 0.492045 4.682716 0.976978
v -0.456278 4.666447 0.976246
v -0.895362 4.589226 -0.724712
v -1.073449 4.625952 0.245960
v 1.116285 4.663035 0.235834
v 0.000000 0.000008 -0.432660
v 0.411484 0.000008 -0.133699
v 0.254311 0.000008 0.350030
v -0.254311 0.000008 0.350030
v -0.411484 0.000008 -0.133699
v 0.000000 1.187634 -0.432660
v 0.411484 1.220689 -0.133699
v 0.254311 1.238828 0.350030
v -0.254311 1.216984 0.350030
v -0.411484 1.185344 -0.133699
vt 0.633263 0.724826
vt 0.594551 0.677543
vt 0.673335 0.677543
vt 0.769493 0.743897
vt 0.796920 0.703462
vt 0.847562 0.704116
vt 0.873890 0.745528
vt 0.911601 0.739139
vt 0.862480 0.677543
vt 0.783696 0.677543
vt 0.734575 0.739139
vt 0.633943 0.850131
vt 0.633943 0.759341
vt 0.704925 0.815948
vt 0.722456 0.739139
vt 0.673335 0.677543
vt 0.594551 0.677543
vt 0.545430 0.739139
vt 0.562961 0.815948
vt 0.769121 0.803927
vt 0.759450 0.747210
vt 0.734575 0.739139
vt 0.752106 0.815948
vt 0.823088 0.850131
vt 0.894070 0.815948
vt 0.911601 0.739139
vt 0.887026 0.749299
vt 0.875062 0.806421
vt 0.821276 0.831823
vt 0.862480 0.677543
vt 0.783696 0.677543
vt 0.795939 0.705054
vt 0.851193 0.705660
vt 0.722456 0.739139
vt 0.704925 0.815948
vt 0.680440 0.796421
vt 0.690004 0.746546
vt 0.673335 0.677543
vt 0.658112 0.709155
vt 0.594551 0.677543
vt 0.609943 0.709503
vt 0.578776 0.746750
vt 0.545430 0.739139
vt 0.588063 0.795929
vt 0.562961 0.815948
vt 0.633943 0.819368
vt 0.633943 0.850131
vt 0.822414 0.806193
vt 0.784336 0.788368
vt 0.752106 0.815948
vt 0.823088 0.850131
vt 0.894070 0.815948
vt 0.911601 0.739139
vt 0.866212 0.745064
vt 0.859768 0.786185
vt 0.666099 0.784984
vt 0.704925 0.815948
vt 0.633943 0.850131
vt 0.633943 0.798731
vt 0.678208 0.749238
vt 0.722456 0.739139
vt 0.655376 0.714835
vt 0.673335 0.677543
vt 0.594551 0.677543
vt 0.612582 0.714984
vt 0.545430 0.739139
vt 0.589983 0.749308
vt 0.562961 0.815948
vt 0.601949 0.784856
vt 0.666002 0.784908
vt 0.704925 0.815948
vt 0.633943 0.850131
vt 0.633943 0.800620
vt 0.734575 0.739139
vt 0.752106 0.815948
vt 0.823088 0.850131
vt 0.894070 0.815948
vt 0.836007 0.766590
vt 0.820943 0.777210
vt 0.806223 0.766183
vt 0.812189 0.748747
vt 0.783696 0.677543
vt 0.722456 0.739139
vt 0.672678 0.750500
vt 0.595995 0.750680
vt 0.545430 0.739139
vt 0.602425 0.784476
vt 0.562961 0.815948
vt 0.752106 0.815948
vt 0.823088 0.850131
vt 0.894070 0.815948
vt 0.858847 0.787860
vt 0.820523 0.803606
vt 0.782941 0.786462
vt 0.818359 0.716261
vt 0.862480 0.677543
vt 0.783696 0.677543
vt 0.734575 0.739139
vt 0.775261 0.748527
vt 0.326163 0.721188
vt 0.373032 0.721188
vt 0.373032 0.784513
vt 0.326163 0.786275
vt 0.279294 0.721188
vt 0.279294 0.787243
vt 0.232425 0.786078
vt 0.232425 0.721188
vt 0.185556 0.784391
vt 0.185556 0.721188
vt 0.138687 0.721188
vt 0.138687 0.784513
vt 0.769723 0.685891
vt 0.736742 0.787397
vt 0.823088 0.850131
vt 0.909433 0.787397
vt 0.876452 0.685891
vt 0.911601 0.739139
vt 0.862480 0.677543
vt 0.830597 0.748999
vn -0.0478 0.6044 0.7952
vn 0.0411 -0.9973 -0.0613
vn 0.3788 0.4670 -0.7990
vn 0.8421 0.4994 -0.2037
vn 0.6650 0.5264 0.5298
vn -0.0193 0.5278 0.8492
vn -0.6953 0.5024 0.5139
vn -0.8542 0.4695 -0.2236
vn -0.3761 0.4537 -0.8079
vn 0.0171 -0.9990 0.0409
vn 0.8319 0.5226 -0.1868
vn 0.6690 0.4998 0.5502
vn -0.0088 0.4714 0.8819
vn -0.6910 0.4589 0.5585
vn -0.8640 0.4716 -0.1764
vn -0.3975 0.5000 -0.7694
vn 0.0299 -0.9993 -0.0243
vn 0.2964 0.6650 -0.6856
vn 0.6818 0.7072 -0.1872
vn 0.5317 0.7322 0.4256
vn -0.0409 0.7213 0.6914
vn -0.6049 0.6826 0.4101
vn -0.7355 0.6453 -0.2066
vn -0.3344 0.6374 -0.6942
vn 0.3053 0.7375 -0.6024
vn 0.0429 -0.9978 0.0513
vn 0.6848 0.7221 -0.0981
vn 0.4630 0.7071 0.5345
vn -0.5539 0.6640 0.5023
vn 0.3572 0.5227 -0.7740
vn -0.7322 0.6663 -0.1409
vn -0.3254 0.7127 -0.6215
vn 0.0301 -0.9991 -0.0309
vn 0.5878 0.0000 -0.8090
vn 0.9511 0.0000 0.3090
vn -0.0000 0.0000 1.0000
vn -0.9511 0.0000 0.3090
vn -0.5878 0.0000 -0.8090
vn 0.0000 -1.0000 -0.0000
usemtl Material.002
s off
f 29/1/1 19/2/1 18/3/1
f 26/4/2 27/5/2 28/6/2 25/7/2 17/8/2 18/9/2 19/10/2 20/11/2
f 35/12/3 39/13/3 36/14/3
f 36/14/4 39/13/4 37/15/4
f 37/15/5 39/13/5 38/16/5
f 38/16/6 39/13/6 40/17/6
f 40/17/7 39/13/7 41/18/7
f 41/18/8 39/13/8 42/19/8
f 42/19/9 39/13/9 35/12/9
f 47/20/10 48/21/10 41/22/10 42/23/10 35/24/10 36/25/10 37/26/10 49/27/10 43/28/10 44/29/10
f 37/26/10 38/30/10 40/31/10 41/22/10 48/21/10 46/32/10 45/33/10 49/27/10
f 3/34/11 2/35/11 43/36/11 49/37/11
f 4/38/12 3/34/12 49/37/12 45/39/12
f 5/40/13 4/38/13 45/39/13 46/41/13
f 48/42/14 6/43/14 5/40/14 46/41/14
f 47/44/15 7/45/15 6/43/15 48/42/15
f 44/46/16 1/47/16 7/45/16 47/44/16
f 33/48/17 34/49/17 7/50/17 1/51/17 2/52/17 3/53/17 32/54/17 30/55/17
f 22/56/18 9/57/18 8/58/18 23/59/18
f 25/60/19 10/61/19 9/57/19 22/56/19
f 28/62/20 11/63/20 10/61/20 25/60/20
f 12/64/21 11/63/21 28/62/21 27/65/21
f 13/66/22 12/64/22 27/65/22 26/67/22
f 14/68/23 13/66/23 26/67/23 24/69/23
f 8/58/24 14/68/24 24/69/24 23/59/24
f 30/70/25 16/71/25 15/72/25 33/73/25
f 13/74/26 14/75/26 8/76/26 9/77/26 56/78/26 55/79/26 59/80/26 58/81/26 12/82/26
f 17/83/27 16/71/27 30/70/27 32/84/27
f 18/3/28 17/83/28 32/84/28 29/1/28
f 31/85/29 20/86/29 19/2/29 29/1/29
f 43/36/30 2/35/30 1/47/30 44/46/30
f 34/87/31 21/88/31 20/86/31 31/85/31
f 33/73/32 15/72/32 21/88/32 34/87/32
f 20/11/2 21/89/2 15/90/2 16/91/2 17/8/2 25/7/2 22/92/2 23/93/2 24/94/2 26/4/2
f 29/95/33 32/54/33 3/53/33 4/96/33 5/97/33 6/98/33 7/50/33 34/49/33 31/99/33
f 51/100/34 50/101/34 55/102/34 56/103/34
f 52/104/35 51/100/35 56/103/35 57/105/35
f 58/106/36 53/107/36 52/104/36 57/105/36
f 59/108/37 54/109/37 53/107/37 58/106/37
f 50/110/38 54/109/38 59/108/38 55/111/38
f 53/112/39 54/113/39 50/114/39 51/115/39 52/116/39
f 10/117/26 11/118/26 12/82/26 58/81/26 57/119/26 56/78/26 9/77/26
